<svg width="1280" height="720" xmlns="http://www.w3.org/2000/svg" xmlns:xlink="http://www.w3.org/1999/xlink" overflow="hidden"><g><rect x="0" y="0" width="1280" height="720" fill="#191919"/><text fill="#FFFFFF" font-family="DengXian,DengXian_MSFontService,sans-serif" font-weight="700" font-size="24" transform="translate(515.583 62)">Rewards</text><text fill="#FFFFFF" font-family="DengXian,DengXian_MSFontService,sans-serif" font-weight="700" font-size="24" transform="translate(614.416 62)">Allocation</text><rect x="233.5" y="449.5" width="82" height="46" stroke="#5736A8" stroke-linejoin="round" stroke-miterlimit="10" fill="#2D3049"/><text fill="#FFFFFF" font-family="Microsoft YaHei,Microsoft YaHei_MSFontService,sans-serif" font-weight="400" font-size="14.6667" transform="translate(250.473 468)">Minter</text><text fill="#FFFFFF" font-family="Microsoft YaHei,Microsoft YaHei_MSFontService,sans-serif" font-weight="400" font-size="14.6667" transform="translate(246.053 486)">rewards</text><path d="M0-0.666667 40.4978-0.666667 40.4978 226.251 39.1645 226.251 39.1645 0 39.8312 0.666667 0 0.666667ZM43.8312 224.918 39.8312 232.918 35.8312 224.918Z" fill="#8497B0" transform="matrix(1.83697e-16 1 1 -1.83697e-16 631.5 197.5)"/><path d="M632.979 197.5 632.979 237.998 505.167 237.998 505.167 236.665 632.313 236.665 631.646 237.331 631.646 197.5ZM506.5 241.331 498.5 237.331 506.5 233.331Z" fill="#8497B0"/><path d="M901.167 253.5 901.167 345.414 899.833 345.414 899.833 253.5ZM904.5 344.08 900.5 352.08 896.5 344.08Z" fill="#8497B0"/><path d="M545.5 155.834C545.5 151.231 549.231 147.5 553.834 147.5L710.167 147.5C714.769 147.5 718.5 151.231 718.5 155.834L718.5 189.167C718.5 193.769 714.769 197.5 710.167 197.5L553.834 197.5C549.231 197.5 545.5 193.769 545.5 189.167Z" stroke="#8497B0" stroke-width="1.33333" stroke-miterlimit="8" fill="#5736A8" fill-rule="evenodd"/><text fill="#FFFFFF" font-family="Microsoft YaHei,Microsoft YaHei_MSFontService,sans-serif" font-weight="400" font-size="16" transform="translate(599.484 177)">Rewards</text><path d="M426.5 226.834C426.5 223.888 428.888 221.5 431.834 221.5L493.167 221.5C496.112 221.5 498.5 223.888 498.5 226.834L498.5 248.167C498.5 251.112 496.112 253.5 493.167 253.5L431.834 253.5C428.888 253.5 426.5 251.112 426.5 248.167Z" stroke="#2F528F" stroke-width="1.33333" stroke-miterlimit="8" fill="#6E1680" fill-rule="evenodd"/><text fill="#FFFFFF" font-family="Microsoft YaHei,Microsoft YaHei_MSFontService,sans-serif" font-weight="400" font-size="16" transform="translate(445.324 242)">97%</text><path d="M864.5 226.834C864.5 223.888 866.888 221.5 869.833 221.5L931.167 221.5C934.112 221.5 936.5 223.888 936.5 226.834L936.5 248.167C936.5 251.112 934.112 253.5 931.167 253.5L869.833 253.5C866.888 253.5 864.5 251.112 864.5 248.167Z" stroke="#2F528F" stroke-width="1.33333" stroke-miterlimit="8" fill="#6E1680" fill-rule="evenodd"/><text fill="#FFFFFF" font-family="Microsoft YaHei,Microsoft YaHei_MSFontService,sans-serif" font-weight="400" font-size="16" transform="translate(888.535 242)">3%</text><path d="M228.5 359C228.5 354.306 232.306 350.5 237 350.5L312 350.5C316.694 350.5 320.5 354.306 320.5 359L320.5 393C320.5 397.694 316.694 401.5 312 401.5L237 401.5C232.306 401.5 228.5 397.694 228.5 393Z" stroke="#2F528F" stroke-width="1.33333" stroke-miterlimit="8" fill="#533E86" fill-rule="evenodd"/><text fill="#FFFFFF" font-family="Microsoft YaHei,Microsoft YaHei_MSFontService,sans-serif" font-weight="400" font-size="16" transform="translate(242.499 381)">95</text><text fill="#FFFFFF" font-family="Microsoft YaHei,Microsoft YaHei_MSFontService,sans-serif" font-weight="400" font-size="16" transform="translate(261.166 381)">~97</text><text fill="#FFFFFF" font-family="Microsoft YaHei,Microsoft YaHei_MSFontService,sans-serif" font-weight="400" font-size="16" transform="translate(291.666 381)">%</text><rect x="555.5" y="471.5" width="93" height="28" stroke="#5736A8" stroke-linejoin="round" stroke-miterlimit="10" fill="#2D3049"/><text fill="#FFFFFF" font-family="Microsoft YaHei,Microsoft YaHei_MSFontService,sans-serif" font-weight="400" font-size="14.6667" transform="translate(564.679 490)">Completer</text><path d="M0.666663-0.00209996 0.921674 80.9548-0.411652 80.959-0.666663 0.00209996ZM4.25079 79.611 0.27601 87.6235-3.74917 79.6362Z" fill="#8497B0" transform="matrix(-1 0 0 1 602.776 384.5)"/><path d="M566.5 357.834C566.5 354.888 568.888 352.5 571.833 352.5L633.167 352.5C636.112 352.5 638.5 354.888 638.5 357.834L638.5 379.167C638.5 382.112 636.112 384.5 633.167 384.5L571.833 384.5C568.888 384.5 566.5 382.112 566.5 379.167Z" stroke="#2F528F" stroke-width="1.33333" stroke-miterlimit="8" fill="#533E86" fill-rule="evenodd"/><text fill="#FFFFFF" font-family="Microsoft YaHei,Microsoft YaHei_MSFontService,sans-serif" font-weight="400" font-size="16" transform="translate(590.121 373)">1%</text><rect x="426.5" y="471.5" width="72" height="27" stroke="#5736A8" stroke-linejoin="round" stroke-miterlimit="10" fill="#2D3049"/><text fill="#FFFFFF" font-family="Microsoft YaHei,Microsoft YaHei_MSFontService,sans-serif" font-weight="400" font-size="14.6667" transform="translate(442.492 490)">Seller</text><path d="M463.167 382.5 463.167 464.344 461.833 464.344 461.833 382.5ZM466.5 463.01 462.5 471.01 458.5 463.01Z" fill="#8497B0"/><path d="M426.5 355.834C426.5 352.888 428.888 350.5 431.834 350.5L493.167 350.5C496.112 350.5 498.5 352.888 498.5 355.834L498.5 377.167C498.5 380.112 496.112 382.5 493.167 382.5L431.834 382.5C428.888 382.5 426.5 380.112 426.5 377.167Z" stroke="#2F528F" stroke-width="1.33333" stroke-miterlimit="8" fill="#533E86" fill-rule="evenodd"/><text fill="#FFFFFF" font-family="Microsoft YaHei,Microsoft YaHei_MSFontService,sans-serif" font-weight="400" font-size="16" transform="translate(449.992 372)">1%</text><path d="M462.742 253.5 462.742 288.547 274.5 288.547 275.167 287.88 275.167 343.829 273.833 343.829 273.833 287.213 462.075 287.213 461.409 287.88 461.409 253.5ZM278.5 342.495 274.5 350.495 270.5 342.495Z" fill="#8497B0"/><path d="M0-0.666667 35.839-0.666667 35.839 140.13 35.1724 139.464 91.9135 139.464 91.9135 140.797 34.5057 140.797 34.5057 0 35.1724 0.666667 0 0.666667ZM90.5802 136.13 98.5802 140.13 90.5802 144.13Z" fill="#8497B0" transform="matrix(1.83697e-16 1 1 -1.83697e-16 462.5 253.5)"/><path d="M0-0.666667 49.1643-0.666667 49.1643 0.000524934 48.4976-0.666142 90.3285-0.666142 90.3285 0.667192 47.831 0.667192 47.831 0 48.4976 0.666667 0 0.666667ZM88.9952-3.99948 96.9952 0.000524934 88.9952 4.00052Z" fill="#8497B0" transform="matrix(1.83697e-16 1 1 -1.83697e-16 462.5 253.5)"/><text fill="#FFFFFF" font-family="DengXian,DengXian_MSFontService,sans-serif" font-weight="400" font-size="14.6667" transform="translate(866.105 454)">Service fee</text><path d="M275.529 401.5 275.529 426.286 274.5 426.286 275.167 425.62 275.167 443.072 273.833 443.072 273.833 424.953 274.863 424.953 274.196 425.62 274.196 401.5ZM278.5 441.739 274.5 449.739 270.5 441.739Z" fill="#8497B0"/><path d="M412.5 427C412.5 419.544 418.544 413.5 426 413.5L498 413.5C505.456 413.5 511.5 419.544 511.5 427L511.5 427C511.5 434.456 505.456 440.5 498 440.5L426 440.5C418.544 440.5 412.5 434.456 412.5 427Z" stroke="#8497B0" stroke-width="1.33333" stroke-miterlimit="8" fill="#2D3049" fill-rule="evenodd"/><text fill="#FFFFFF" font-family="Microsoft YaHei,Microsoft YaHei_MSFontService,sans-serif" font-weight="400" font-size="13.3333" transform="translate(436.469 432)">Sell Box</text><path d="M556.5 432.5C556.5 422.007 565.007 413.5 575.5 413.5L630.5 413.5C640.994 413.5 649.5 422.007 649.5 432.5L649.5 432.5C649.5 442.994 640.993 451.5 630.5 451.5L575.5 451.5C565.007 451.5 556.5 442.993 556.5 432.5Z" stroke="#8497B0" stroke-width="1.33333" stroke-miterlimit="8" fill="#2D3049" fill-rule="evenodd"/><text fill="#FFFFFF" font-family="Microsoft YaHei,Microsoft YaHei_MSFontService,sans-serif" font-weight="400" font-size="13.3333" transform="translate(571.454 429)">Complete</text><text fill="#FFFFFF" font-family="Microsoft YaHei,Microsoft YaHei_MSFontService,sans-serif" font-weight="400" font-size="13.3333" transform="translate(583.867 445)">Order</text><text fill="#FFFFFF" font-family="DengXian,DengXian_MSFontService,sans-serif" font-weight="400" font-size="14.6667" transform="translate(625.78 598)">Only official token</text><path d="M381 350.369C381 331.388 396.388 316 415.369 316L648.631 316C667.612 316 683 331.388 683 350.369L683 522.631C683 541.612 667.612 557 648.631 557L415.369 557C396.388 557 381 541.612 381 522.631Z" stroke="#843C0C" stroke-width="2" stroke-miterlimit="8" stroke-dasharray="8 6" fill="none" fill-rule="evenodd"/><text fill="#F2F2F2" font-family="DengXian,DengXian_MSFontService,sans-serif" font-weight="400" font-size="14.6667" transform="translate(484.296 541)">Helper Rewards</text><path d="M854.5 361C854.5 356.306 858.306 352.5 863 352.5L938 352.5C942.694 352.5 946.5 356.306 946.5 361L946.5 395C946.5 399.694 942.694 403.5 938 403.5L863 403.5C858.306 403.5 854.5 399.694 854.5 395Z" stroke="#2F528F" stroke-width="1.33333" stroke-miterlimit="8" fill="#533E86" fill-rule="evenodd"/><text fill="#FFFFFF" font-family="Microsoft YaHei,Microsoft YaHei_MSFontService,sans-serif" font-weight="400" font-size="16" transform="translate(888.535 383)">3%</text><path d="M366 344.215C366 322.557 383.557 305 405.215 305L920.785 305C942.443 305 960 322.557 960 344.215L960 573.785C960 595.443 942.443 613 920.785 613L405.215 613C383.557 613 366 595.443 366 573.785Z" stroke="#526590" stroke-width="2" stroke-miterlimit="8" stroke-dasharray="8 6" fill="none" fill-rule="evenodd"/></g></svg>