<svg width="1280" height="720" xmlns="http://www.w3.org/2000/svg" xmlns:xlink="http://www.w3.org/1999/xlink" overflow="hidden"><g><rect x="0" y="0" width="1280" height="720" fill="#191919"/><text fill="#FFFFFF" font-family="DengXian,DengXian_MSFontService,sans-serif" font-weight="700" font-size="24" transform="translate(500.833 62)">Service Fee</text><text fill="#FFFFFF" font-family="DengXian,DengXian_MSFontService,sans-serif" font-weight="700" font-size="24" transform="translate(629.166 62)">Allocation</text><rect x="283.5" y="397.5" width="106" height="63" stroke="#5736A8" stroke-linejoin="round" stroke-miterlimit="10" fill="#2D3049"/><text fill="#FFFFFF" font-family="Microsoft YaHei,Microsoft YaHei_MSFontService,sans-serif" font-weight="400" font-size="14.6667" transform="translate(292.478 416)">DAO</text><text fill="#FFFFFF" font-family="Calibri,Calibri_MSFontService,sans-serif" font-weight="400" font-size="14.6667" transform="translate(292.478 433)">Governance</text><text fill="#FFFFFF" font-family="Calibri,Calibri_MSFontService,sans-serif" font-weight="400" font-size="14.6667" transform="translate(292.478 451)">Fund</text><rect x="479.5" y="397.5" width="117" height="45" stroke="#5736A8" stroke-linejoin="round" stroke-miterlimit="10" fill="#2D3049"/><text fill="#FFFFFF" font-family="Calibri,Calibri_MSFontService,sans-serif" font-weight="400" font-size="14.6667" transform="translate(488.19 416)">Spoilage</text><text fill="#FFFFFF" font-family="Calibri,Calibri_MSFontService,sans-serif" font-weight="400" font-size="14.6667" transform="translate(488.19 433)">Witness Fund</text><rect x="680.5" y="397.5" width="106" height="63" stroke="#5736A8" stroke-linejoin="round" stroke-miterlimit="10" fill="#2D3049"/><text fill="#FFFFFF" font-family="Calibri,Calibri_MSFontService,sans-serif" font-weight="400" font-size="14.6667" transform="translate(689.593 416)">Ecological</text><text fill="#FFFFFF" font-family="Calibri,Calibri_MSFontService,sans-serif" font-weight="400" font-size="14.6667" transform="translate(689.593 433)">Development</text><text fill="#FFFFFF" font-family="Calibri,Calibri_MSFontService,sans-serif" font-weight="400" font-size="14.6667" transform="translate(689.593 451)">Fund</text><path d="M0-0.666667 50.3113-0.666667 50.3113 120.273 49.6446 119.606 92.6225 119.606 92.6225 120.94 48.978 120.94 48.978 0 49.6446 0.666667 0 0.666667ZM91.2891 116.273 99.2891 120.273 91.2891 124.273Z" fill="#8497B0" transform="matrix(1.83697e-16 1 1 -1.83697e-16 613.5 213.5)"/><path d="M614.008 213.5 614.008 263.811 336.5 263.811 337.167 263.145 337.167 306.123 335.833 306.123 335.833 262.478 613.342 262.478 612.675 263.145 612.675 213.5ZM340.5 304.789 336.5 312.789 332.5 304.789Z" fill="#8497B0"/><path d="M0.666667-6.76356e-06 0.667124 45.0748-0.666209 45.0748-0.666667 6.76356e-06ZM4.00044 43.7414 0.000524934 51.7414-3.99956 43.7415Z" fill="#8497B0" transform="matrix(-1 0 0 1 336.501 345.5)"/><path d="M538.167 345.5 538.167 390.575 536.833 390.575 536.833 345.5ZM541.5 389.241 537.5 397.241 533.5 389.241Z" fill="#8497B0"/><path d="M0.666667-1.35271e-06 0.666758 45.0748-0.666575 45.0748-0.666667 1.35271e-06ZM4.00009 43.7414 0.000104987 51.7414-3.99991 43.7414Z" fill="#8497B0" transform="matrix(-1 0 0 1 733.5 345.5)"/><rect x="872.5" y="397.5" width="122" height="45" stroke="#5736A8" stroke-linejoin="round" stroke-miterlimit="10" fill="#2D3049"/><text fill="#FFFFFF" font-family="Calibri,Calibri_MSFontService,sans-serif" font-weight="400" font-size="14.6667" transform="translate(881.196 416)">Legal Advisor</text><text fill="#FFFFFF" font-family="Calibri,Calibri_MSFontService,sans-serif" font-weight="400" font-size="14.6667" transform="translate(881.196 433)">Fund</text><path d="M0.666667-1.35271e-06 0.666758 45.0748-0.666575 45.0748-0.666667 1.35271e-06ZM4.00009 43.7414 0.000104987 51.7414-3.99991 43.7414Z" fill="#8497B0" transform="matrix(-1 0 0 1 933.5 345.5)"/><path d="M0-0.666667 50.3112-0.666667 50.3112 320.014 49.6446 319.347 92.6225 319.347 92.6225 320.68 48.9779 320.68 48.9779 0 49.6446 0.666667 0 0.666667ZM91.2891 316.014 99.2891 320.014 91.2891 324.014Z" fill="#8497B0" transform="matrix(1.83697e-16 1 1 -1.83697e-16 613.5 213.5)"/><path d="M577.5 186.834C577.5 183.888 579.888 181.5 582.833 181.5L644.167 181.5C647.112 181.5 649.5 183.888 649.5 186.834L649.5 208.167C649.5 211.112 647.112 213.5 644.167 213.5L582.833 213.5C579.888 213.5 577.5 211.112 577.5 208.167Z" stroke="#2F528F" stroke-width="1.33333" stroke-miterlimit="8" fill="#6E1680" fill-rule="evenodd"/><text fill="#FFFFFF" font-family="Microsoft YaHei,Microsoft YaHei_MSFontService,sans-serif" font-weight="400" font-size="16" transform="translate(600.975 203)">3%</text><path d="M300.5 318.834C300.5 315.888 302.888 313.5 305.834 313.5L367.167 313.5C370.112 313.5 372.5 315.888 372.5 318.834L372.5 340.167C372.5 343.112 370.112 345.5 367.167 345.5L305.834 345.5C302.888 345.5 300.5 343.112 300.5 340.167Z" stroke="#2F528F" stroke-width="1.33333" stroke-miterlimit="8" fill="#533E86" fill-rule="evenodd"/><text fill="#FFFFFF" font-family="Microsoft YaHei,Microsoft YaHei_MSFontService,sans-serif" font-weight="400" font-size="16" transform="translate(319.467 334)">40%</text><path d="M501.5 318.834C501.5 315.888 503.888 313.5 506.834 313.5L568.167 313.5C571.112 313.5 573.5 315.888 573.5 318.834L573.5 340.167C573.5 343.112 571.112 345.5 568.167 345.5L506.834 345.5C503.888 345.5 501.5 343.112 501.5 340.167Z" stroke="#2F528F" stroke-width="1.33333" stroke-miterlimit="8" fill="#533E86" fill-rule="evenodd"/><text fill="#FFFFFF" font-family="Microsoft YaHei,Microsoft YaHei_MSFontService,sans-serif" font-weight="400" font-size="16" transform="translate(520.668 334)">30%</text><path d="M697.5 318.834C697.5 315.888 699.888 313.5 702.833 313.5L764.167 313.5C767.112 313.5 769.5 315.888 769.5 318.834L769.5 340.167C769.5 343.112 767.112 345.5 764.167 345.5L702.833 345.5C699.888 345.5 697.5 343.112 697.5 340.167Z" stroke="#2F528F" stroke-width="1.33333" stroke-miterlimit="8" fill="#533E86" fill-rule="evenodd"/><text fill="#FFFFFF" font-family="Microsoft YaHei,Microsoft YaHei_MSFontService,sans-serif" font-weight="400" font-size="16" transform="translate(716.582 334)">20%</text><path d="M897.5 318.834C897.5 315.888 899.888 313.5 902.833 313.5L964.167 313.5C967.112 313.5 969.5 315.888 969.5 318.834L969.5 340.167C969.5 343.112 967.112 345.5 964.167 345.5L902.833 345.5C899.888 345.5 897.5 343.112 897.5 340.167Z" stroke="#2F528F" stroke-width="1.33333" stroke-miterlimit="8" fill="#533E86" fill-rule="evenodd"/><text fill="#FFFFFF" font-family="Microsoft YaHei,Microsoft YaHei_MSFontService,sans-serif" font-weight="400" font-size="16" transform="translate(916.322 334)">10%</text><text fill="#FFFFFF" font-family="DengXian,DengXian_MSFontService,sans-serif" font-weight="400" font-size="14.6667" transform="translate(414.02 513)">DAO can adjust the allocation of funds through voting governance.</text><path d="M613.808 213.5 613.808 263.811 537.5 263.811 538.167 263.145 538.167 306.122 536.833 306.122 536.833 262.478 613.141 262.478 612.474 263.145 612.474 213.5ZM541.5 304.789 537.5 312.789 533.5 304.789Z" fill="#8497B0"/></g></svg>